<svg width="24" height="25" viewBox="0 0 24 25" fill="none" xmlns="http://www.w3.org/2000/svg">
<path opacity="0.4" d="M8 8.80005H8.01M8.5 8.80005C8.5 9.07619 8.27614 9.30005 8 9.30005C7.72386 9.30005 7.5 9.07619 7.5 8.80005C7.5 8.52391 7.72386 8.30005 8 8.30005C8.27614 8.30005 8.5 8.52391 8.5 8.80005Z" stroke="white" stroke-width="2" stroke-linecap="round" stroke-linejoin="round"/>
<path d="M2.93726 12.7373C2.59135 12.3914 2.4184 12.2185 2.29472 12.0166C2.18506 11.8377 2.10425 11.6426 2.05526 11.4385C2 11.2083 2 10.9637 2 10.4746L2 7.62553C2 7.13635 2 6.89176 2.05526 6.66158C2.10425 6.45751 2.18506 6.26242 2.29472 6.08348C2.4184 5.88165 2.59136 5.70869 2.93726 5.36279L4.56274 3.73731C4.90865 3.3914 5.0816 3.21845 5.28343 3.09477C5.46237 2.98511 5.65746 2.9043 5.86154 2.85531C6.09171 2.80005 6.3363 2.80005 6.82548 2.80005L9.67452 2.80005C10.1637 2.80005 10.4083 2.80005 10.6385 2.85531C10.8425 2.9043 11.0376 2.98511 11.2166 3.09477C11.4184 3.21845 11.5914 3.3914 11.9373 3.73731L19.6059 11.4059C20.7939 12.594 21.388 13.188 21.6105 13.873C21.8063 14.4755 21.8063 15.1246 21.6105 15.7271C21.388 16.4121 20.7939 17.0061 19.6059 18.1942L17.3941 20.4059C16.2061 21.594 15.612 22.188 14.927 22.4106C14.3245 22.6063 13.6755 22.6063 13.0729 22.4106C12.388 22.188 11.7939 21.594 10.6059 20.4059L2.93726 12.7373Z" stroke="white" stroke-width="2" stroke-linecap="round" stroke-linejoin="round"/>
</svg>
